#tb 0: 1001/30000
0,          0,          0,        1,   522720, 0x1ccad503
0,          1,          1,        1,   522720, 0xd266d6e8
0,          2,          2,        1,   522720, 0x535473b3
0,          3,          3,        1,   522720, 0xf8b53c53
0,          4,          4,        1,   522720, 0x4e4cc04b
0,          5,          5,        1,   522720, 0x20ea3515
0,          6,          6,        1,   522720, 0xb9c67e30
0,          7,          7,        1,   522720, 0x03d2e35a
0,          8,          8,        1,   522720, 0xae2e7896
0,          9,          9,        1,   522720, 0x6da37f41
0,         12,         12,        1,   522720, 0x7caf4954
